<svg xmlns="http://www.w3.org/2000/svg" width="48" height="32" viewBox="0 0 48 32">
  <rect width="48" height="32" fill="#1A1F71"/>
  <path d="M18.6,11.1l-3.2,9.8h-2.1l-1.6-7.7c-0.1-0.4-0.2-0.6-0.5-0.8c-0.5-0.3-1.3-0.5-2-0.7l0-0.6h3.5c0.5,0,0.9,0.3,1,0.8l0.9,5.1l2.3-5.9H18.6z M26.5,17.6c0-2.3-3.2-2.4-3.2-3.4c0-0.3,0.3-0.6,0.9-0.7c0.3,0,1.1-0.1,2.1,0.4l0.4-1.7c-0.5-0.2-1.2-0.4-2-0.4c-2.1,0-3.6,1.1-3.6,2.7c0,1.2,1.1,1.8,1.9,2.2c0.8,0.4,1.1,0.6,1.1,1c0,0.5-0.7,0.8-1.3,0.8c-1.1,0-1.7-0.3-2.2-0.5l-0.4,1.8c0.5,0.2,1.4,0.4,2.4,0.4C24.9,20.2,26.5,19.1,26.5,17.6 M32.6,20.9h1.9l-1.7-9.8h-1.7c-0.4,0-0.7,0.2-0.8,0.6l-2.9,9.2h2.1l0.4-1.2h2.5L32.6,20.9z M30.5,18l1-2.9l0.6,2.9H30.5z M15.5,11.1l-1.6,9.8h-2l1.6-9.8H15.5z" fill="#FFFFFF"/>
</svg>

